<?xml version="1.0" standalone="no"?>
<!DOCTYPE svg PUBLIC "-//W3C//DTD SVG 20010904//EN"
 "http://www.w3.org/TR/2001/REC-SVG-20010904/DTD/svg10.dtd">
<svg version="1.0" xmlns="http://www.w3.org/2000/svg"
 width="239.000000pt" height="256.000000pt" viewBox="0 0 239.000000 256.000000"
 preserveAspectRatio="xMidYMid meet">

<g transform="translate(0.000000,256.000000) scale(0.100000,-0.100000)"
fill="#000000" stroke="none">
<path d="M0 2000 c0 -367 3 -560 10 -560 6 0 10 14 10 30 0 17 4 30 9 30 5 0
11 11 13 25 6 46 23 26 26 -30 2 -40 7 -55 17 -55 11 0 15 14 15 55 0 52 1 55
25 55 24 0 25 -3 25 -55 0 -52 1 -55 25 -55 24 0 25 -3 25 -55 0 -30 5 -55 10
-55 6 0 10 -25 10 -55 0 -41 4 -55 14 -55 11 0 16 -15 18 -52 4 -71 28 -78 28
-7 0 33 5 56 14 63 15 12 21 55 18 144 -2 48 -4 52 -27 52 -31 0 -37 21 -33
120 3 74 4 75 31 78 21 3 27 9 27 27 0 17 6 25 23 27 19 3 22 10 25 61 2 32 8
57 14 57 7 0 8 28 4 88 -13 161 -15 170 -45 174 -23 3 -26 7 -26 41 0 29 -4
37 -17 37 -21 0 -25 -45 -5 -53 7 -3 5 -6 -5 -6 -14 -1 -18 7 -18 34 0 38 15
44 64 25 17 -6 26 -6 26 0 0 6 -8 10 -17 11 -31 1 16 16 74 24 29 4 55 11 58
15 3 5 27 12 53 16 26 3 52 10 57 14 6 4 66 10 134 13 116 6 123 5 128 -13 3
-12 14 -20 27 -21 19 -1 18 -2 -4 -8 -19 -5 -26 -14 -28 -40 -3 -32 -5 -33
-38 -28 l-34 6 0 -60 c0 -46 -3 -59 -15 -59 -12 0 -15 -13 -15 -55 l0 -55 -95
0 -95 0 0 -55 c0 -54 13 -74 23 -35 3 14 14 20 32 20 18 0 29 -6 32 -20 3 -11
14 -20 24 -20 16 0 19 -8 19 -54 0 -49 2 -54 25 -60 22 -6 25 -11 25 -56 0
-28 -4 -50 -10 -50 -5 0 -10 -25 -10 -55 0 -42 3 -55 15 -55 8 0 15 -4 15 -10
0 -5 23 -10 50 -10 l50 0 0 34 c0 21 -6 36 -15 40 -12 4 -15 24 -15 86 0 47
-4 80 -10 80 -5 0 -10 25 -10 55 0 30 5 55 10 55 6 0 10 -25 10 -56 0 -40 4
-55 13 -52 6 3 13 17 15 31 4 34 32 36 32 3 0 -14 5 -28 10 -31 6 -4 10 7 10
25 l0 31 53 -3 c47 -3 52 -1 55 18 2 17 13 23 55 30 65 11 63 30 -3 26 -39 -2
-50 1 -50 12 0 8 -12 16 -27 19 l-28 4 28 2 29 1 -4 83 -3 82 28 3 c24 3 27 7
27 43 l0 40 108 -3 107 -3 0 -35 c0 -29 4 -36 25 -40 21 -4 26 -12 28 -43 2
-28 8 -37 21 -37 10 0 21 -9 24 -20 6 -24 57 -29 57 -5 0 9 9 15 25 15 16 0
25 -6 25 -15 0 -8 -7 -15 -15 -15 -11 0 -15 -12 -15 -51 0 -42 3 -52 20 -56
17 -4 20 -14 20 -58 0 -59 6 -65 71 -65 l39 0 0 -50 c0 -40 -3 -50 -16 -50
-13 0 -15 -7 -11 -35 5 -30 3 -35 -13 -35 -16 0 -18 5 -13 35 5 31 3 35 -16
35 -17 0 -21 -6 -21 -30 0 -28 -2 -30 -42 -31 -24 -1 -135 -5 -248 -8 -203 -6
-205 -6 -208 -28 -3 -20 -9 -23 -52 -23 l-49 0 -3 -37 c-2 -28 -8 -39 -23 -42
-11 -2 -24 -9 -30 -16 -5 -7 -19 -15 -30 -17 -12 -2 -21 -12 -23 -26 -2 -15
-10 -22 -27 -22 -12 0 -26 -7 -29 -16 -5 -13 -15 -15 -51 -10 -41 7 -45 5 -45
-13 0 -14 -8 -21 -27 -23 -20 -2 -29 -9 -31 -25 -2 -13 -7 -23 -12 -23 -5 0
-10 -12 -12 -27 -2 -23 -10 -30 -40 -37 -37 -9 -38 -10 -38 -57 0 -26 -4 -51
-10 -54 -5 -3 -10 -29 -10 -56 0 -35 -4 -51 -15 -55 -12 -5 -15 -27 -15 -110
0 -84 -3 -106 -15 -110 -11 -4 -15 -21 -15 -59 0 -38 -4 -55 -15 -59 -11 -4
-15 -20 -15 -55 0 -44 -3 -50 -22 -53 -21 -3 -23 -9 -26 -71 -3 -64 -4 -67
-27 -67 -23 0 -25 -4 -25 -45 l0 -45 -80 0 -80 0 0 -55 c0 -54 0 -55 -30 -55
l-30 0 0 114 c0 92 3 115 15 120 8 3 15 17 15 31 0 14 4 25 10 25 5 0 10 28
12 63 3 59 4 62 31 65 27 3 27 4 27 78 0 43 4 74 10 74 6 0 10 25 10 55 0 42
3 55 15 55 11 0 15 12 15 50 0 28 -4 50 -10 50 -5 0 -10 -11 -10 -25 0 -14 -4
-25 -10 -25 -5 0 -10 -11 -10 -25 0 -14 -7 -28 -15 -31 -8 -4 -15 -17 -15 -30
0 -15 -6 -24 -15 -24 -11 0 -15 -12 -15 -45 0 -38 -3 -45 -20 -45 -28 0 -60
-30 -60 -57 0 -13 -4 -23 -10 -23 -6 0 -10 -98 -10 -275 l0 -275 44 0 c41 0
45 2 48 28 3 23 8 27 33 27 25 0 30 -4 33 -27 3 -24 8 -28 33 -28 24 0 29 4
29 25 0 27 31 48 38 27 2 -7 12 -12 23 -12 15 0 19 7 19 31 0 22 5 32 20 36
18 5 20 14 20 114 0 66 4 109 10 109 6 0 10 -6 10 -14 0 -15 49 -26 118 -26
41 0 42 -1 42 -35 0 -31 3 -35 25 -35 21 0 25 -5 25 -30 0 -20 -5 -30 -15 -30
-12 0 -15 -16 -15 -80 l0 -80 70 0 c40 0 70 4 70 10 0 6 9 10 20 10 11 0 20
-4 20 -10 0 -5 14 -10 30 -10 30 0 30 1 30 55 0 52 1 55 26 55 22 0 25 4 24
28 -5 69 -1 82 25 82 21 0 25 5 25 30 0 30 0 30 56 30 52 0 55 1 52 23 -3 19
-8 22 -45 19 l-43 -2 0 60 c0 44 4 60 14 60 17 0 26 110 26 328 l0 162 24 0
c18 0 25 -6 28 -22 2 -15 10 -23 23 -23 15 0 21 8 23 33 2 17 -1 32 -7 32 -6
0 -8 26 -4 70 4 47 2 78 -6 94 -7 12 -11 40 -9 62 l3 39 118 3 117 3 0 -110
c0 -87 -3 -110 -15 -115 -8 -3 -15 -13 -15 -23 -1 -36 -25 -53 -73 -53 -52 0
-57 -4 -50 -43 4 -20 11 -27 29 -27 13 0 24 -4 24 -10 0 -5 11 -10 25 -10 20
0 25 5 25 24 0 18 6 25 23 28 18 2 23 10 25 42 l3 38 50 -6 c29 -4 49 -3 49 3
0 5 12 11 28 13 22 2 28 8 30 36 3 26 7 32 28 32 17 0 24 -5 24 -20 0 -15 7
-20 25 -20 18 0 25 -5 25 -20 0 -15 7 -20 25 -20 22 0 25 4 25 34 0 31 3 34
38 40 20 3 58 6 85 6 40 0 47 -3 47 -20 0 -17 7 -20 45 -20 38 0 45 3 45 20 0
15 -7 20 -25 20 -21 0 -25 5 -25 29 0 23 -5 30 -22 33 -17 2 -24 11 -26 31 -3
21 -9 27 -28 27 -24 0 -24 2 -24 84 0 47 -4 87 -9 90 -5 3 -12 53 -16 111 -4
58 -11 108 -16 111 -5 3 -9 23 -9 45 0 35 3 39 25 39 16 0 25 6 25 15 0 8 5
15 10 15 14 0 13 47 -1 52 -7 2 -12 34 -13 83 -1 75 -2 80 -23 83 -21 3 -23 8
-23 75 0 108 -9 147 -32 147 -11 0 -22 8 -25 19 -4 15 -17 21 -54 26 -48 7
-49 8 -49 41 0 27 -4 34 -20 34 -11 0 -20 7 -20 15 0 13 23 15 153 13 l152 -2
-150 -6 c-145 -5 -172 -20 -37 -20 61 0 62 -1 63 -27 1 -17 3 -21 6 -10 5 18
24 21 86 11 35 -6 37 -9 37 -43 l0 -36 54 3 55 4 4 51 3 52 2 -57 c2 -44 6
-58 17 -58 10 0 15 11 16 33 1 37 16 92 18 65 1 -14 13 -18 74 -20 l72 -3 5
-35 c6 -44 30 -52 30 -10 0 23 4 30 20 30 26 0 28 46 3 53 -13 3 -11 5 5 6 23
1 24 -1 17 -58 -4 -38 -3 -61 4 -65 6 -4 11 -32 11 -63 0 -46 -3 -56 -20 -60
-44 -12 -16 -23 58 -23 42 0 107 -3 145 -7 l67 -6 0 56 0 56 -122 4 -123 3
123 2 122 2 0 240 0 240 -1195 0 -1195 0 0 -560z m797 463 c-3 -10 -5 -4 -5
12 0 17 2 24 5 18 2 -7 2 -21 0 -30z m256 30 c-29 -3 -43 -9 -46 -21 -3 -12
-5 -11 -6 6 -1 20 3 22 47 20 l47 -1 -42 -4z m137 -33 c0 -35 -3 -40 -22 -39
-17 1 -19 2 -5 6 11 3 17 14 17 33 0 19 -6 30 -17 33 -14 4 -12 5 5 6 19 1 22
-4 22 -39z m-432 23 c-16 -2 -40 -2 -55 0 -16 2 -3 4 27 4 30 0 43 -2 28 -4z
m170 -30 c-1 -37 -1 -37 -5 -5 -4 29 -7 32 -38 32 -24 0 -35 -5 -38 -17 -4
-14 -5 -12 -6 5 -1 20 4 22 44 22 l45 0 -2 -37z m1002 12 c0 -9 -9 -15 -25
-15 -16 0 -25 6 -25 15 0 9 9 15 25 15 16 0 25 -6 25 -15z m-1420 -3 c0 -4
-17 -6 -37 -4 -59 5 -63 10 -10 11 26 1 47 -3 47 -7z m123 1 c-44 -4 -60 -27
-25 -36 13 -4 11 -5 -5 -6 -18 -1 -23 4 -23 24 0 23 3 25 48 23 l47 -1 -42 -4z
m-443 -24 c0 -5 -4 -7 -10 -4 -5 3 -10 -1 -10 -10 0 -9 5 -13 10 -10 6 3 10 1
10 -4 0 -6 -7 -11 -15 -11 -9 0 -15 9 -15 25 0 16 6 25 15 25 8 0 15 -5 15
-11z m209 -5 c2 -2 -13 -4 -35 -4 l-39 0 3 -49 c4 -49 4 -50 40 -54 37 -4 37
-4 -5 -5 l-43 -2 0 50 c0 49 -1 50 -29 50 -30 0 -46 12 -34 24 6 6 134 -3 142
-10z m78 -6 c-3 -8 -6 -5 -6 6 -1 11 2 17 5 13 3 -3 4 -12 1 -19z m52 -40 c-1
-29 -3 -45 -6 -35 -2 9 -13 17 -24 17 -15 0 -19 -7 -19 -35 0 -39 16 -48 23
-12 4 19 4 18 6 -5 1 -22 -4 -28 -19 -28 -17 0 -20 7 -21 45 -1 25 -2 51 -3
58 -1 6 12 13 27 15 20 2 27 8 23 18 -3 8 -1 14 4 14 6 0 9 -24 9 -52z m304
45 c-7 -2 -19 -2 -25 0 -7 3 -2 5 12 5 14 0 19 -2 13 -5z m224 -60 c-2 -16 -4
-5 -4 22 0 28 2 40 4 28 2 -13 2 -35 0 -50z m-371 -19 l1 -39 -53 0 c-30 0
-54 3 -54 8 0 4 23 7 50 7 49 0 50 1 50 30 0 25 -4 30 -25 30 -14 0 -25 4 -25
9 0 5 12 6 28 2 23 -6 27 -13 28 -47z m291 4 c-2 -13 -4 -5 -4 17 -1 22 1 32
4 23 2 -10 2 -28 0 -40z m1261 25 c-24 -4 -28 -9 -28 -38 0 -27 4 -34 23 -37
17 -2 23 -10 25 -40 3 -29 -1 -38 -17 -43 -12 -3 -30 -3 -42 0 -18 6 -20 12
-14 38 3 18 9 53 12 80 5 45 6 47 36 46 31 -2 31 -2 5 -6z m-1521 -65 c-3 -8
-6 -5 -6 6 -1 11 2 17 5 13 3 -3 4 -12 1 -19z m213 9 c0 -8 -90 1 -100 10 -2
2 19 3 48 1 28 -2 52 -7 52 -11z m295 -17 c0 -20 -6 -26 -27 -28 -25 -3 -28 0
-28 28 0 28 3 31 28 28 21 -2 27 -8 27 -28z m-408 14 c-3 -3 -12 -4 -19 -1 -8
3 -5 6 6 6 11 1 17 -2 13 -5z m1021 -51 c-21 -2 -55 -2 -75 0 -21 2 -4 4 37 4
41 0 58 -2 38 -4z m242 -20 c0 -5 -33 -7 -72 -5 -125 4 -137 9 -30 10 56 1
102 -1 102 -5z m-1203 -39 c-3 -3 -12 -4 -19 -1 -8 3 -5 6 6 6 11 1 17 -2 13
-5z m373 -9 c0 -9 -9 -15 -25 -15 -16 0 -25 6 -25 15 0 9 9 15 25 15 16 0 25
-6 25 -15z m160 -35 c0 -47 -2 -50 -25 -50 -23 0 -25 3 -25 50 0 47 2 50 25
50 23 0 25 -3 25 -50z m-575 -235 c0 -36 -3 -40 -28 -43 -29 -4 -32 1 -40 59
l-5 36 36 -6 c35 -6 37 -8 37 -46z m43 -137 c-2 -15 -10 -23 -23 -23 -13 0
-21 8 -23 23 -3 18 1 22 23 22 22 0 26 -4 23 -22z m-98 -323 c0 -20 -5 -25
-25 -25 -20 0 -25 5 -25 25 0 20 5 25 25 25 20 0 25 -5 25 -25z m475 -105 c0
-31 -3 -35 -27 -38 -24 -3 -28 -8 -28 -34 l0 -30 -47 7 c-27 4 -51 9 -55 12
-5 2 -8 26 -8 54 l0 49 49 0 c28 0 53 5 56 11 4 5 19 9 33 7 24 -3 27 -8 27
-38z m-375 -521 c0 -26 -3 -30 -22 -27 -17 2 -24 11 -26 31 -3 23 0 27 22 27
22 0 26 -4 26 -31z m0 -269 c0 -25 -4 -30 -25 -30 -25 0 -25 -1 -25 -80 0 -51
-4 -80 -11 -80 -7 0 -9 16 -5 48 3 26 8 75 12 110 5 57 8 62 30 62 20 0 24 -5
24 -30z m0 -195 c0 -8 -4 -15 -10 -15 -5 0 -10 7 -10 15 0 8 5 15 10 15 6 0
10 -7 10 -15z m-243 -152 c-3 -10 -5 -4 -5 12 0 17 2 24 5 18 2 -7 2 -21 0
-30z"/>
<path d="M420 1920 c0 -11 7 -20 15 -20 8 0 15 9 15 20 0 11 -7 20 -15 20 -8
0 -15 -9 -15 -20z"/>
<path d="M1040 1900 c0 -5 11 -10 25 -10 14 0 25 5 25 10 0 6 -11 10 -25 10
-14 0 -25 -4 -25 -10z"/>
<path d="M2203 1823 c-45 -3 -53 -7 -53 -24 0 -18 6 -20 58 -17 50 3 57 6 60
26 2 12 0 21 -5 20 -4 -1 -32 -3 -60 -5z"/>
<path d="M1990 1720 c0 -43 3 -50 20 -50 17 0 20 7 20 50 0 43 -3 50 -20 50
-17 0 -20 -7 -20 -50z"/>
<path d="M2133 1725 c0 -27 2 -38 4 -22 2 15 2 37 0 50 -2 12 -4 0 -4 -28z"/>
<path d="M1676 1551 c-6 -9 82 -26 91 -17 3 2 2 9 -2 15 -8 13 -82 15 -89 2z"/>
<path d="M360 1500 c0 -27 5 -50 10 -50 6 0 10 23 10 50 0 28 -4 50 -10 50 -5
0 -10 -22 -10 -50z"/>
<path d="M2270 1392 c0 -26 4 -52 9 -57 6 -6 11 -32 13 -60 2 -27 8 -49 13
-48 14 4 19 103 6 103 -7 0 -11 23 -11 55 0 42 -3 55 -15 55 -11 0 -15 -12
-15 -48z"/>
<path d="M2376 1344 c-9 -69 -7 -124 4 -124 6 0 10 35 10 85 0 47 -2 85 -4 85
-2 0 -6 -21 -10 -46z"/>
<path d="M2040 1275 l0 -55 35 0 35 0 0 55 0 55 -35 0 -35 0 0 -55z"/>
<path d="M116 1281 c-4 -6 -12 -9 -17 -6 -5 4 -29 3 -54 -1 -39 -5 -45 -10
-45 -30 0 -22 4 -24 50 -24 28 0 50 5 50 10 0 6 11 10 25 10 28 0 31 8 12 35
-10 13 -16 15 -21 6z"/>
<path d="M95 1160 c-3 -5 -15 -10 -26 -10 -12 0 -19 -7 -19 -20 0 -17 7 -20
50 -20 49 0 50 1 50 30 0 25 -4 30 -24 30 -14 0 -28 -4 -31 -10z"/>
<path d="M1932 1098 c7 -20 48 -23 48 -4 0 11 -9 16 -26 16 -16 0 -24 -5 -22
-12z"/>
<path d="M2232 1025 c0 -16 2 -22 5 -12 2 9 2 23 0 30 -3 6 -5 -1 -5 -18z"/>
<path d="M2064 986 c-8 -21 3 -49 16 -41 5 3 10 15 10 25 0 25 -18 36 -26 16z"/>
<path d="M1682 970 c0 -14 2 -19 5 -12 2 6 2 18 0 25 -3 6 -5 1 -5 -13z"/>
<path d="M2201 968 c-1 -17 -7 -28 -15 -28 -9 0 -16 -12 -18 -27 -2 -22 -8
-28 -28 -28 -20 0 -26 6 -28 28 -2 15 -8 27 -13 27 -5 0 -9 -36 -9 -79 0 -61
3 -80 15 -85 8 -3 15 -17 15 -31 0 -16 6 -25 15 -25 9 0 15 -9 15 -24 0 -14 5
-28 10 -31 6 -3 10 -17 10 -30 0 -13 5 -25 11 -27 6 -2 13 -41 16 -86 3 -45
10 -82 14 -82 5 0 9 -27 9 -60 0 -33 -4 -60 -10 -60 -5 0 -10 -22 -10 -48 0
-26 -4 -52 -9 -58 -5 -5 -12 -55 -16 -111 l-7 -103 41 0 41 0 -7 145 -6 145
31 0 c42 0 47 -21 38 -171 l-7 -119 25 0 c23 0 25 4 29 53 l3 52 2 -52 c2 -40
6 -53 17 -53 13 0 15 54 15 425 l0 425 -50 0 c-37 0 -50 4 -50 14 0 8 -10 16
-22 18 -16 2 -24 11 -26 28 -2 13 -10 29 -17 35 -7 5 -15 19 -18 30 -4 15 -5
13 -6 -7z m96 -558 c-5 -22 -3 -30 8 -30 9 0 15 -9 14 -22 0 -16 -2 -18 -6 -8
-8 21 -34 39 -55 40 -12 0 -18 8 -18 25 0 21 5 25 31 25 30 0 31 -2 26 -30z
m-60 -102 c-3 -8 -6 -5 -6 6 -1 11 2 17 5 13 3 -3 4 -12 1 -19z"/>
<path d="M2250 975 c0 -8 9 -15 20 -15 11 0 20 7 20 15 0 8 -9 15 -20 15 -11
0 -20 -7 -20 -15z"/>
<path d="M1200 610 c0 -33 4 -60 10 -60 6 0 10 -25 10 -55 0 -44 3 -55 16 -55
15 0 16 12 9 108 -8 116 -9 122 -31 122 -11 0 -14 -14 -14 -60z"/>
<path d="M1711 274 c-1 -38 3 -53 14 -58 11 -4 15 -20 15 -56 0 -38 4 -50 15
-50 11 0 15 12 15 50 0 28 -4 50 -9 50 -6 0 -11 15 -13 33 -2 17 -7 30 -13 27
-5 -3 -13 9 -16 25 -5 24 -7 20 -8 -21z"/>
</g>
</svg>
